<svg width="45" height="45" viewBox="0 0 45 45" fill="none" xmlns="http://www.w3.org/2000/svg">
<path fill-rule="evenodd" clip-rule="evenodd" d="M6.5625 9.375C6.06522 9.375 5.58831 9.57254 5.23667 9.92418C4.88504 10.2758 4.6875 10.7527 4.6875 11.25C4.6875 11.7473 4.88504 12.2242 5.23667 12.5758C5.58831 12.9275 6.06522 13.125 6.5625 13.125H38.4375C38.9348 13.125 39.4117 12.9275 39.7633 12.5758C40.115 12.2242 40.3125 11.7473 40.3125 11.25C40.3125 10.7527 40.115 10.2758 39.7633 9.92418C39.4117 9.57254 38.9348 9.375 38.4375 9.375H6.5625ZM4.6875 22.5C4.6875 22.0027 4.88504 21.5258 5.23667 21.1742C5.58831 20.8225 6.06522 20.625 6.5625 20.625H38.4375C38.9348 20.625 39.4117 20.8225 39.7633 21.1742C40.115 21.5258 40.3125 22.0027 40.3125 22.5C40.3125 22.9973 40.115 23.4742 39.7633 23.8258C39.4117 24.1775 38.9348 24.375 38.4375 24.375H6.5625C6.06522 24.375 5.58831 24.1775 5.23667 23.8258C4.88504 23.4742 4.6875 22.9973 4.6875 22.5ZM4.6875 33.7519C4.6875 33.2546 4.88504 32.7777 5.23667 32.426C5.58831 32.0744 6.06522 31.8769 6.5625 31.8769H38.4375C38.9348 31.8769 39.4117 32.0744 39.7633 32.426C40.115 32.7777 40.3125 33.2546 40.3125 33.7519C40.3125 34.2492 40.115 34.7261 39.7633 35.0777C39.4117 35.4293 38.9348 35.6269 38.4375 35.6269H6.5625C6.06522 35.6269 5.58831 35.4293 5.23667 35.0777C4.88504 34.7261 4.6875 34.2492 4.6875 33.7519Z" fill="#341510"/>
</svg>
