<svg width="50" height="50" viewBox="0 0 50 50" fill="none" xmlns="http://www.w3.org/2000/svg">
<g clip-path="url(#clip0_554_2779)">
<path d="M39.9673 0C42.5079 0 44.6803 0.90204 46.4844 2.70612C48.2885 4.5102 49.1905 6.68257 49.1905 9.22322V39.9673C49.1905 42.5079 48.2885 44.6803 46.4844 46.4844C44.6803 48.2885 42.5079 49.1905 39.9673 49.1905H33.9466V30.1356H40.3196L41.2803 22.7058H33.9466V17.9661C33.9466 16.7705 34.1974 15.8738 34.6992 15.276C35.2009 14.6782 36.1777 14.3793 37.6295 14.3793L41.5365 14.3472V7.71804C40.1915 7.52589 38.2913 7.42982 35.8361 7.42982C32.9325 7.42982 30.6106 8.28382 28.8706 9.99182C27.1306 11.6998 26.2606 14.1124 26.2606 17.2295V22.7058H19.8555V30.1356H26.2606V49.1905H9.22322C6.68257 49.1905 4.5102 48.2885 2.70612 46.4844C0.90204 44.6803 0 42.5079 0 39.9673V9.22322C0 6.68257 0.90204 4.5102 2.70612 2.70612C4.5102 0.90204 6.68257 0 9.22322 0H39.9673Z" fill="#F9E9D2"/>
</g>
<defs>
<clipPath id="clip0_554_2779">
<rect width="49.1905" height="49.1905" fill="white"/>
</clipPath>
</defs>
</svg>
