<svg width="51" height="51" viewBox="0 0 51 51" fill="none" xmlns="http://www.w3.org/2000/svg">
<path fill-rule="evenodd" clip-rule="evenodd" d="M15.0711 0C11.074 0 7.24062 1.58785 4.41423 4.41423C1.58785 7.24062 0 11.074 0 15.0711L0 35.166C0 39.1631 1.58785 42.9965 4.41423 45.8229C7.24062 48.6493 11.074 50.2371 15.0711 50.2371H35.166C39.1631 50.2371 42.9965 48.6493 45.8229 45.8229C48.6493 42.9965 50.2371 39.1631 50.2371 35.166V15.0711C50.2371 11.074 48.6493 7.24062 45.8229 4.41423C42.9965 1.58785 39.1631 0 35.166 0L15.0711 0ZM13.3966 25.1186C13.3966 22.0097 14.6316 19.0282 16.8299 16.8299C19.0282 14.6316 22.0097 13.3966 25.1186 13.3966C28.2274 13.3966 31.209 14.6316 33.4073 16.8299C35.6056 19.0282 36.8406 22.0097 36.8406 25.1186C36.8406 28.2274 35.6056 31.209 33.4073 33.4073C31.209 35.6056 28.2274 36.8406 25.1186 36.8406C22.0097 36.8406 19.0282 35.6056 16.8299 33.4073C14.6316 31.209 13.3966 28.2274 13.3966 25.1186ZM36.8406 13.3966H40.1897V10.0474H36.8406V13.3966Z" fill="#F9E9D2"/>
</svg>
