<svg width="1000" height="100" viewBox="0 0 1000 100" fill="none" xmlns="http://www.w3.org/2000/svg">
<path d="M996.095 24.449C996.758 26.5341 997.2 28.498 997.256 30.4498C997.322 32.2925 997.189 33.4442 996.548 35.2505C996.537 35.2869 996.393 35.6506 996.206 36.0385C996.018 36.4264 995.797 36.8022 995.576 37.1659C995.299 37.6266 995.454 37.4084 995.078 37.8812C994.813 38.2085 994.548 38.5358 994.26 38.8389C993.111 40.0512 991.829 40.9483 990.193 41.8211C986.512 43.7972 981.892 44.8519 977.636 45.4823C971.856 46.3309 965.986 46.5249 960.161 46.4885C944.853 46.4157 929.566 44.8034 914.357 43.0334C896.518 40.9604 878.722 38.4752 860.904 36.281C843.485 34.1352 826.01 32.1713 808.491 31.2984C793.049 30.5226 777.63 30.7044 762.344 33.3715C751.954 35.1899 741.376 37.8691 732.103 43.5062C727.825 46.1006 723.824 49.4101 720.618 53.4834C718.96 55.5807 717.501 57.8719 716.297 60.3208C715.633 61.6664 715.567 62.3332 716.263 63.6667C716.805 64.6972 717.524 65.6306 718.353 66.3944C721.569 69.316 726.156 69.8615 730.08 68.625C734.567 67.2187 737.85 63.5455 739.11 58.6114C740.558 52.9015 739.155 46.5733 736.292 41.6636C733.175 36.3052 728.212 32.6077 722.973 30.0861C716.971 27.213 710.516 25.5158 704.127 23.9883C697.33 22.3517 690.454 21.1152 683.557 20.1938C669.398 18.3026 655.107 17.8662 640.859 18.2905C611.933 19.1512 583.239 23.5397 554.523 27.0796C539.955 28.8738 525.365 30.4741 510.72 31.3106C503.27 31.7349 495.809 31.9652 488.348 31.9167C482.015 31.8803 475.494 31.9894 469.216 30.9105C464.407 30.0861 459.069 28.4374 455.919 24.0732C454.692 22.3759 453.785 20.3393 454.062 18.1208C454.316 16.1084 455.355 14.2293 456.626 12.7988C458.516 10.653 462.528 8.05873 464.684 11.2228C465.104 11.829 464.783 12.9322 464.595 13.9869C464.407 15.0416 464.131 16.169 463.777 17.2237C463.092 19.2967 462.075 21.2728 460.815 23.0063C455.366 30.5347 446.28 33.9534 437.968 35.7233C428.076 37.8327 418.216 37.2266 408.236 36.4871C384.947 34.7656 361.602 32.5107 338.247 33.6139C316.042 34.6686 293.438 38.9116 273.808 50.8891C269.055 53.7865 264.523 57.1324 260.279 60.8542C255.647 64.9032 251.082 69.4736 248.242 75.2684C245.755 80.3358 244.65 86.6276 247.225 91.9132C249.303 96.1805 253.404 99.5264 257.847 99.9628C259.991 100.169 262.147 99.5143 263.871 98.0959C264.998 97.1624 264.976 96.1562 265.054 94.6893C265.142 93.0891 265.12 91.4889 265.02 89.8887C264.634 84.1424 263.097 78.5658 260.721 73.4378C255.725 62.6726 247.125 53.932 237.421 48.3675C225.87 41.7484 212.596 39.4935 199.708 38.9116C185.714 38.2813 171.666 39.3602 157.684 39.9663C127.973 41.2635 98.2733 42.5728 68.5625 43.8699C61.4001 44.1851 54.2487 44.5852 47.0863 44.767C40.764 44.9246 34.3641 44.8398 28.1191 43.6153C22.4158 42.5122 16.0381 40.5725 11.4732 36.4628C8.0799 33.4199 5.93561 29.1284 4.67554 24.5823C2.57544 17.0297 2.86285 9.25891 2.76337 1.46385C2.74127 -0.487938 -0.0219727 -0.487938 0.00012207 1.46385C0.088562 8.17997 -0.0994263 14.8355 1.11639 21.4667C2.59753 29.5406 6.23401 37.1417 13.0206 41.1908C22.46 46.8279 33.4247 47.9069 43.9915 47.8341C56.0283 47.7493 68.0872 46.9128 80.113 46.3794C105.237 45.2762 130.36 44.173 155.484 43.0698C167.466 42.5485 179.458 41.7727 191.451 41.7484C202.814 41.7242 214.287 42.5849 225.218 46.2097C242.782 52.0408 260.334 67.7037 262.191 88.9916C262.412 91.4646 262.39 93.9377 262.169 96.4108L262.578 95.344C259.494 98.2535 255.106 96.726 252.343 94.0711C248.794 90.6645 247.833 85.9123 249.071 80.9904C250.541 75.2199 254.387 70.4677 258.367 66.552C262.08 62.8908 266.115 59.5934 270.337 56.6596C287.138 44.961 306.79 39.5663 326.431 37.5054C347.123 35.3354 367.991 36.4992 388.683 38.0024C398.829 38.7419 408.976 39.7966 419.134 40.2088C427.501 40.5482 436.067 39.7239 444.136 37.1902C451.453 34.8989 458.792 30.9954 463.446 24.1701C465.679 20.8969 467.038 17.0297 467.524 12.9807C467.657 11.9017 467.812 11.0046 467.292 10.0348C466.85 9.21042 466.275 8.48305 465.568 7.92539C464.385 6.96767 462.904 6.59186 461.445 6.73734C454.603 7.41622 449.066 16.4963 452.293 23.4306C456.56 32.5956 467.469 34.1473 475.825 34.5716C502.032 35.9052 528.239 33.3108 554.258 30.1104C580.277 26.9099 605.379 23.1518 631.099 21.7092C656.82 20.2665 682.187 21.2849 707.012 27.7828C717.17 30.4498 729.56 33.8685 734.822 44.8883C736.988 49.4344 737.828 55.2534 735.695 59.9935C733.96 63.8243 730.389 66.0307 726.532 66.1762C723.083 66.3095 719.734 64.7941 718.253 61.2179V62.7454C724.808 48.6343 738.69 42.1363 752.042 38.6328C762.996 35.7597 774.237 34.3413 785.489 33.9776C796.741 33.6139 807.153 34.0867 817.963 34.8626C829.923 35.7112 841.849 36.9841 853.764 38.4025C865.679 39.8209 878.07 41.4453 890.228 43.0213C902.387 44.5973 913.517 46.0036 925.189 47.2159C935.38 48.2706 945.604 49.1555 955.851 49.4101C963.964 49.6162 972.154 49.495 980.179 48.0645C985.595 47.1068 991.42 45.4944 995.686 41.4938C999.334 38.0752 1000.54 33.0441 999.787 27.904C999.577 26.4492 999.212 25.0309 998.77 23.6488C998.184 21.8183 995.52 22.6063 996.106 24.449H996.095Z" fill="#D96207"/>
</svg>
