<svg width="56" height="56" viewBox="0 0 56 56" fill="none" xmlns="http://www.w3.org/2000/svg">
<path fill-rule="evenodd" clip-rule="evenodd" d="M11.6668 2.33325C9.19148 2.33325 6.81751 3.31658 5.06717 5.06692C3.31683 6.81726 2.3335 9.19123 2.3335 11.6666V44.3333C2.3335 46.8086 3.31683 49.1826 5.06717 50.9329C6.81751 52.6833 9.19148 53.6666 11.6668 53.6666H44.3335C46.8088 53.6666 49.1828 52.6833 50.9332 50.9329C52.6835 49.1826 53.6668 46.8086 53.6668 44.3333V11.6666C53.6668 9.19123 52.6835 6.81726 50.9332 5.06692C49.1828 3.31658 46.8088 2.33325 44.3335 2.33325H11.6668ZM28.7935 10.4999H34.3632C34.3632 14.2333 37.5178 18.4566 42.3198 18.4566V24.0239C39.0135 23.7953 36.1878 23.2539 34.3632 21.6369V35.9543C34.3632 39.9326 31.2178 45.4999 24.0242 45.4999C15.2368 45.4999 13.6828 37.5433 13.6828 35.1586C13.6828 32.7739 15.0828 24.8173 24.8175 24.8173V30.3869C22.2718 29.8479 19.2502 31.9759 19.2502 35.1586C19.2502 39.1369 21.6372 39.9326 24.0242 39.9326C26.4112 39.9326 28.7958 37.5456 28.7958 35.1586L28.7935 10.4999Z" fill="#F9E9D2"/>
</svg>
