<svg width="46" height="46" viewBox="0 0 46 46" fill="none" xmlns="http://www.w3.org/2000/svg">
<path d="M33.7324 9.89795C34.3945 9.89795 34.9734 10.1175 35.4277 10.5718C35.8821 11.0261 36.1016 11.605 36.1016 12.2671C36.1015 12.929 35.882 13.5082 35.4277 13.9624L26.3896 22.9995L35.4277 32.0386C35.8819 32.4928 36.1015 33.071 36.1016 33.7329C36.1016 34.395 35.8821 34.9739 35.4277 35.4282C34.9734 35.8825 34.3945 36.1021 33.7324 36.1021C33.0705 36.1019 32.4923 35.8824 32.0381 35.4282L22.999 26.3901L13.9619 35.4282C13.5077 35.8825 12.9286 36.102 12.2666 36.1021C11.6045 36.1021 11.0256 35.8825 10.5713 35.4282C10.117 34.9739 9.89746 34.395 9.89746 33.7329C9.89756 33.071 10.1171 32.4928 10.5713 32.0386L19.6084 22.9995L10.5713 13.9624C10.1171 13.5082 9.89755 12.929 9.89746 12.2671C9.89746 11.605 10.117 11.0261 10.5713 10.5718C11.0256 10.1175 11.6045 9.89795 12.2666 9.89795C12.9286 9.89804 13.5077 10.1175 13.9619 10.5718L22.999 19.6089L32.0381 10.5718C32.4923 10.1176 33.0705 9.89805 33.7324 9.89795Z" fill="#D96207" stroke="#D96207"/>
</svg>
